<?xml version="1.0" encoding="UTF-8"?>
<svg version="1.1" xmlns="http://www.w3.org/2000/svg" width="251" height="79">
<path d="M0 0 C82.83 0 165.66 0 251 0 C251 26.07 251 52.14 251 79 C168.17 79 85.34 79 0 79 C0 52.93 0 26.86 0 0 Z " fill="#0089d3" transform="translate(0,0)"/>
<path d="M0 0 C3 0.125 3 0.125 4 1.125 C4.23363881 2.97391946 4.41303635 4.82988031 4.5625 6.6875 C4.64628906 7.69941406 4.73007812 8.71132813 4.81640625 9.75390625 C4.87699219 10.53636719 4.93757813 11.31882812 5 12.125 C5.82371094 11.39410156 5.82371094 11.39410156 6.6640625 10.6484375 C10.77013899 7.97056153 15.26599257 8.62342882 20 9.125 C25.63935336 11.07314025 28.39740574 14.24033034 31.25 19.375 C33.19090902 26.49166641 32.23576093 33.52558245 29 40.125 C26.3666612 43.28500656 24.89362319 44.8271256 21 46.125 C15.02646613 46.52823698 9.57896356 46.53752478 4 44.125 C3.34 44.785 2.68 45.445 2 46.125 C-2.55555556 45.56944444 -2.55555556 45.56944444 -4 44.125 C-4.09785341 42.77955673 -4.12797985 41.42907437 -4.12939453 40.08007812 C-4.13254669 39.22248901 -4.13569885 38.3648999 -4.13894653 37.48132324 C-4.1369223 36.54904907 -4.13489807 35.6167749 -4.1328125 34.65625 C-4.13376923 33.70560669 -4.13472595 32.75496338 -4.13571167 31.7755127 C-4.13639357 29.76131118 -4.13453862 27.74710748 -4.13037109 25.73291016 C-4.12502298 22.63829645 -4.13031577 19.5438279 -4.13671875 16.44921875 C-4.13605797 14.49739551 -4.13477681 12.54557236 -4.1328125 10.59375 C-4.13483673 9.66147583 -4.13686096 8.72920166 -4.13894653 7.76867676 C-4.13579437 6.91108765 -4.13264221 6.05349854 -4.12939453 5.16992188 C-4.12859894 4.41126831 -4.12780334 3.65261475 -4.12698364 2.87097168 C-3.90296478 -0.20919341 -3.12564855 0.13023536 0 0 Z " fill="#0089d3" transform="translate(13,23.875)"/>
<path d="M0 0 C1.17369141 0.10054687 1.17369141 0.10054687 2.37109375 0.203125 C4.96497326 0.85043896 5.98431616 1.60965264 7.5625 3.75 C7.25 6.4375 7.25 6.4375 6.5625 8.75 C3.36347361 8.83886184 0.63572544 8.66058531 -2.4375 7.75 C-3.0975 9.07 -3.7575 10.39 -4.4375 11.75 C-3.014375 11.7190625 -3.014375 11.7190625 -1.5625 11.6875 C1.5625 11.75 1.5625 11.75 3.5625 12.75 C2.6875 17.625 2.6875 17.625 1.5625 18.75 C-0.43708364 18.79080783 -2.43795254 18.79254356 -4.4375 18.75 C-4.42702637 19.55743652 -4.41655273 20.36487305 -4.40576172 21.19677734 C-4.36430169 24.83948682 -4.33820562 28.48214675 -4.3125 32.125 C-4.29574219 33.39601562 -4.27898437 34.66703125 -4.26171875 35.9765625 C-4.25527344 37.18828125 -4.24882812 38.4 -4.2421875 39.6484375 C-4.23171387 40.76911621 -4.22124023 41.88979492 -4.21044922 43.04443359 C-4.4375 45.75 -4.4375 45.75 -6.4375 47.75 C-8.4175 47.42 -10.3975 47.09 -12.4375 46.75 C-12.4375 37.51 -12.4375 28.27 -12.4375 18.75 C-14.0875 18.42 -15.7375 18.09 -17.4375 17.75 C-17.45731934 18.58772949 -17.47713867 19.42545898 -17.49755859 20.28857422 C-17.57560612 23.39365834 -17.66229635 26.49834539 -17.75488281 29.60302734 C-17.81204036 31.60886971 -17.85918596 33.61498918 -17.90625 35.62109375 C-17.96425781 37.50634766 -17.96425781 37.50634766 -18.0234375 39.4296875 C-18.0548584 40.59226074 -18.0862793 41.75483398 -18.11865234 42.95263672 C-18.4375 45.75 -18.4375 45.75 -20.4375 47.75 C-23 47.9375 -23 47.9375 -25.4375 47.75 C-27.40491628 45.78258372 -26.60138207 41.97432269 -26.60546875 39.28515625 C-26.60879715 38.53664902 -26.61212555 37.78814178 -26.61555481 37.01695251 C-26.62062693 35.43066016 -26.62296305 33.8443571 -26.62280273 32.25805664 C-26.62498773 29.82615631 -26.64313581 27.39471051 -26.66210938 24.96289062 C-26.66504349 23.42448072 -26.66702817 21.88606866 -26.66796875 20.34765625 C-26.67515427 19.61740738 -26.68233978 18.88715851 -26.68974304 18.13478088 C-26.66632307 12.97882307 -26.66632307 12.97882307 -24.4375 10.75 C-22 11.125 -22 11.125 -19.4375 11.75 C-18.4475 11.75 -17.4575 11.75 -16.4375 11.75 C-15.1175 11.75 -13.7975 11.75 -12.4375 11.75 C-12.56125 10.863125 -12.685 9.97625 -12.8125 9.0625 C-12.4026362 5.44203646 -12.19432895 5.12217355 -9.5625 2.9375 C-5.79136152 0.29770306 -4.4740139 -0.44078955 0 0 Z " fill="#FBFBFB" transform="translate(163.4375,22.25)"/>
<path d="M0 0 C4.55555556 0.55555556 4.55555556 0.55555556 6 2 C6.1211174 3.65983331 6.17960997 5.32432974 6.2109375 6.98828125 C6.23929688 8.00470703 6.26765625 9.02113281 6.296875 10.06835938 C6.34867208 12.21923297 6.39302702 14.37029955 6.4296875 16.52148438 C6.460625 17.54177734 6.4915625 18.56207031 6.5234375 19.61328125 C6.54325684 20.54954346 6.56307617 21.48580566 6.58349609 22.45043945 C7.07583356 25.46420271 7.83546968 26.85799758 10 29 C14.78272228 29.61712546 16.85970929 29.72784513 20.9375 27.125 C23.82227732 24.15280519 24.12350046 22.55926546 24.2109375 18.53515625 C24.25347656 17.21161133 24.25347656 17.21161133 24.296875 15.86132812 C24.34884374 13.99954791 24.39314923 12.13753758 24.4296875 10.27539062 C24.460625 9.39173828 24.4915625 8.50808594 24.5234375 7.59765625 C24.54325684 6.78820557 24.56307617 5.97875488 24.58349609 5.14477539 C25.09435381 2.51412764 25.85661462 1.57503924 28 0 C30.625 0.1875 30.625 0.1875 33 1 C35.25215426 5.50430853 34.18584447 11.69856211 34.18530273 16.71289062 C34.18749143 18.99107477 34.20565804 21.26877643 34.22460938 23.546875 C34.22754293 24.98958167 34.22952798 26.43229065 34.23046875 27.875 C34.23457764 29.19242188 34.23868652 30.50984375 34.24291992 31.8671875 C34 35 34 35 32 37 C29.375 37.125 29.375 37.125 27 37 C26.67 36.01 26.34 35.02 26 34 C25.0925 34.495 24.185 34.99 23.25 35.5 C17.43266863 37.99314202 10.28319483 38.28387619 4.3828125 35.9765625 C0.1638906 32.4769322 -1.69180901 28.57703866 -2.34277344 23.13378906 C-2.46418905 19.95390404 -2.44791005 16.80618063 -2.375 13.625 C-2.37306641 11.98724609 -2.37306641 11.98724609 -2.37109375 10.31640625 C-2.28148496 2.28148496 -2.28148496 2.28148496 0 0 Z " fill="#FAFAFA" transform="translate(174,33)"/>
<path d="M0 0 C2.5625 0.25 2.5625 0.25 5 1 C6.19236948 3.38473896 6.15513183 4.95227215 6.2109375 7.61328125 C6.23929688 8.53173828 6.26765625 9.45019531 6.296875 10.39648438 C6.34863938 12.32858982 6.39300369 14.26090878 6.4296875 16.19335938 C6.55765203 23.14422981 6.55765203 23.14422981 10 29 C14.80461239 29.69744373 16.83886235 29.74115169 20.9375 27.125 C23.82227732 24.15280519 24.12350046 22.55926546 24.2109375 18.53515625 C24.25347656 17.21161133 24.25347656 17.21161133 24.296875 15.86132812 C24.34884374 13.99954791 24.39314923 12.13753758 24.4296875 10.27539062 C24.460625 9.39173828 24.4915625 8.50808594 24.5234375 7.59765625 C24.54325684 6.78820557 24.56307617 5.97875488 24.58349609 5.14477539 C25.09201078 2.52619301 25.88611135 1.58751424 28 0 C30.97397616 0.27036147 31.85446026 0.85446026 34 3 C34.39987122 7.56101998 34.32902392 12.13628239 34.31567383 16.71289062 C34.31251197 18.9913709 34.33597517 21.26855521 34.36132812 23.546875 C34.36360088 24.98958169 34.36430473 26.43229188 34.36328125 27.875 C34.36626221 29.19242188 34.36924316 30.50984375 34.37231445 31.8671875 C34.24945068 32.90101562 34.12658691 33.93484375 34 35 C31 37 31 37 28.5625 36.625 C27.716875 36.41875 26.87125 36.2125 26 36 C22.10540926 35.78918149 22.10540926 35.78918149 19 37 C13.45551842 37.48804239 8.58475542 37.69506817 3.4375 35.4375 C-1.15692631 30.84307369 -2.17215035 26.46009133 -2.36328125 20.13671875 C-2.36196316 17.98691293 -2.34465987 15.83706566 -2.3125 13.6875 C-2.31572266 12.59115234 -2.31894531 11.49480469 -2.32226562 10.36523438 C-2.26731366 2.26731366 -2.26731366 2.26731366 0 0 Z " fill="#FAFAFA" transform="translate(53,33)"/>
<path d="M0 0 C3.29714793 0.32971479 4.6226839 0.6226839 7 3 C7.70125 2.51273438 8.4025 2.02546875 9.125 1.5234375 C12.37322816 -0.19777035 14.35156196 -0.40292172 18 -0.375 C19.010625 -0.38273437 20.02125 -0.39046875 21.0625 -0.3984375 C25.64182897 0.22269489 28.20081162 2.11201291 31.25 5.5 C33.92334057 9.31905796 34.12780926 12.17861592 34.1328125 16.7265625 C34.13410156 17.8403125 34.13539063 18.9540625 34.13671875 20.1015625 C34.13285156 21.26429687 34.12898438 22.42703125 34.125 23.625 C34.13080078 25.38070312 34.13080078 25.38070312 34.13671875 27.171875 C34.13542969 28.28304687 34.13414062 29.39421875 34.1328125 30.5390625 C34.13168457 31.56209473 34.13055664 32.58512695 34.12939453 33.63916016 C34 36 34 36 33 37 C30.5625 37.1875 30.5625 37.1875 28 37 C25.49323918 34.49323918 25.72941414 33.59990968 25.65625 30.1328125 C25.62660156 29.16472656 25.59695312 28.19664063 25.56640625 27.19921875 C25.54449219 26.18472656 25.52257812 25.17023437 25.5 24.125 C25.45651828 22.12739841 25.40475172 20.12995585 25.34375 18.1328125 C25.32505859 17.24480957 25.30636719 16.35680664 25.28710938 15.44189453 C24.98161675 12.8436486 24.39537158 11.20234089 23 9 C19.89951072 7.44975536 17.42105782 7.71007985 14 8 C10.77381267 10.0790985 9.1330698 11.80039529 7 15 C6.65030922 17.3033186 6.65030922 17.3033186 6.62109375 19.8515625 C6.58693359 20.78484375 6.55277344 21.718125 6.51757812 22.6796875 C6.49115234 23.65164062 6.46472656 24.62359375 6.4375 25.625 C6.37782795 27.55481963 6.31424228 29.48452361 6.24609375 31.4140625 C6.22216553 32.2695166 6.1982373 33.1249707 6.17358398 34.00634766 C6 36 6 36 5 37 C2.5625 37.1875 2.5625 37.1875 0 37 C-2.46002787 34.53997213 -2.24552005 33.15206161 -2.27789307 29.79333496 C-2.2738446 29.08809692 -2.26979614 28.38285889 -2.265625 27.65625 C-2.26753845 26.93135376 -2.2694519 26.20645752 -2.27142334 25.45959473 C-2.27278487 23.92634738 -2.26909064 22.3930885 -2.26074219 20.85986328 C-2.25004178 18.50917741 -2.26063808 16.15925577 -2.2734375 13.80859375 C-2.2721159 12.32031081 -2.26955349 10.83202834 -2.265625 9.34375 C-2.26967346 8.63851196 -2.27372192 7.93327393 -2.27789307 7.20666504 C-2.22992486 2.22992486 -2.22992486 2.22992486 0 0 Z " fill="#FBFCFC" transform="translate(96,33)"/>
<path d="M0 0 C0.76626709 0.00451172 1.53253418 0.00902344 2.32202148 0.01367188 C3.09280029 0.01560547 3.8635791 0.01753906 4.65771484 0.01953125 C9.94479797 0.05964823 15.08431353 0.37682344 20.32202148 1.13867188 C20.41946163 9.86497795 20.48913243 18.46870483 19.32202148 27.13867188 C15.94702148 27.76367188 15.94702148 27.76367188 12.32202148 28.13867188 C11.66202148 27.47867187 11.00202148 26.81867187 10.32202148 26.13867188 C10.33950367 23.2191462 10.46146782 20.41569303 10.69702148 17.51367188 C10.75374023 16.711875 10.81045898 15.91007812 10.86889648 15.08398438 C11.0105013 13.1015169 11.16504407 11.11998137 11.32202148 9.13867188 C10.19022461 9.161875 9.05842773 9.18507813 7.89233398 9.20898438 C6.41056973 9.22774088 4.92879837 9.24594121 3.44702148 9.26367188 C2.7006543 9.28042969 1.95428711 9.2971875 1.18530273 9.31445312 C-0.76992313 9.33206777 -2.72539873 9.24187377 -4.67797852 9.13867188 C-6.67797852 7.13867188 -6.67797852 7.13867188 -6.86547852 4.07617188 C-6.54289142 -0.97769269 -4.57616705 0.01231118 0 0 Z " fill="#FCFCFC" transform="translate(220.677978515625,2.861328125)"/>
<path d="M0 0 C2.9640585 1.80767693 5.42197673 3.84395345 7 7 C7.54528108 13.43431679 6.68456777 16.68988763 3 22 C-0.77698267 23.88849133 -4.85302018 23.33134973 -8.8125 22.1875 C-11 21 -11 21 -13 18 C-13.6693739 13.12129411 -14.37722176 7.46527596 -11.90234375 3.03515625 C-8.26353468 -0.3125481 -4.707891 -0.84069482 0 0 Z " fill="#A3A3A4" transform="translate(30,40)"/>
<path d="M0 0 C1.084021 0.04713135 2.16804199 0.0942627 3.28491211 0.14282227 C5.03964844 0.21533203 5.03964844 0.21533203 6.82983398 0.28930664 C8.67738281 0.37341797 8.67738281 0.37341797 10.56225586 0.45922852 C11.79782227 0.51143555 13.03338867 0.56364258 14.30639648 0.61743164 C17.37107777 0.74759185 20.43547199 0.88257197 23.49975586 1.02172852 C23.69901785 19.06600896 23.69901785 19.06600896 22.49975586 26.02172852 C20.49975586 28.02172852 20.49975586 28.02172852 17.99975586 28.27172852 C15.49975586 28.02172852 15.49975586 28.02172852 13.49975586 26.02172852 C13.51723805 23.10220284 13.63920219 20.29874967 13.87475586 17.39672852 C13.93147461 16.59493164 13.98819336 15.79313477 14.04663086 14.96704102 C14.18823568 12.98457354 14.34277845 11.00303801 14.49975586 9.02172852 C13.28416992 9.03333008 12.06858398 9.04493164 10.81616211 9.05688477 C9.23152822 9.0662613 7.64689268 9.07536164 6.06225586 9.08422852 C5.25981445 9.09260742 4.45737305 9.10098633 3.63061523 9.10961914 C1.58680365 9.11824282 -0.45708316 9.07401001 -2.50024414 9.02172852 C-3.50024414 8.02172852 -3.50024414 8.02172852 -3.62524414 4.52172852 C-3.46482924 0.0301113 -3.46482924 0.0301113 0 0 Z " fill="#BB1A25" transform="translate(203.500244140625,15.978271484375)"/>
<path d="M0 0 C2.33294775 -0.04241723 4.66702567 -0.04092937 7 0 C8 1 8 1 8.125 3.5 C8 6 8 6 7 7 C4 7.125 4 7.125 1 7 C0 6 0 6 -0.0625 2.9375 C-0.041875 1.968125 -0.02125 0.99875 0 0 Z " fill="#FAFAFA" transform="translate(137,24)"/>
</svg>
